<svg viewBox="0 0 96 96" xmlns="http://www.w3.org/2000/svg" xmlns:xlink="http://www.w3.org/1999/xlink" id="Icons_Iceberg" overflow="hidden"><g id="Icons"><path d="M68.643 14.761 79.823 14.761C81.106 14.761 82.146 13.721 82.146 12.438 82.146 11.155 81.106 10.115 79.823 10.115L79.63 10.115C79.6349 8.5189 78.3451 7.221 76.749 7.21605 76.4111 7.21501 76.0757 7.2732 75.758 7.388 74.8801 5.68573 72.7884 5.01745 71.0862 5.89536 69.9455 6.48362 69.223 7.6537 69.208 8.937 67.5974 8.8051 66.1848 10.0038 66.0529 11.6144 65.9238 13.191 67.071 14.5847 68.643 14.761Z" fill="#FBAF17"/><path d="M12.4 20.459 22 20.459C23.1026 20.3937 23.9435 19.4469 23.8782 18.3442 23.8183 17.3328 23.0115 16.5259 22 16.466L21.834 16.466C21.8384 15.0952 20.7307 13.9805 19.3599 13.9761 19.0695 13.9752 18.7811 14.0252 18.508 14.124 17.7533 12.6614 15.9558 12.0876 14.4933 12.8423 13.5137 13.3478 12.8931 14.3528 12.88 15.455 11.4936 15.3788 10.308 16.4409 10.2319 17.8273 10.1602 19.132 11.0999 20.2741 12.394 20.455Z" fill="#FBAF17"/><path d="M84 33.819C82.0865 33.0584 80.0576 32.6289 78 32.549 75.9424 32.6289 73.9135 33.0583 72 33.819 71.4401 34.0481 70.8647 34.2373 70.278 34.385L61.819 15.685C61.4577 14.8866 60.6186 14.4164 59.749 14.525L52.859 15.386 45.559 6.26C44.8666 5.39939 43.6076 5.26303 42.747 5.95543 42.6908 6.00068 42.637 6.04894 42.586 6.1L32.586 16.1C32.3528 16.3346 32.1811 16.6232 32.086 16.94L29.179 26.631 24.115 33.865C24.078 33.85 24.04 33.839 24.003 33.823 22.0895 33.0624 20.0606 32.6329 18.003 32.553 15.9454 32.6329 13.9165 33.0623 12.003 33.823 10.7292 34.3505 9.37839 34.6683 8.003 34.764L8.003 40.764C10.0606 40.6843 12.0896 40.2548 14.003 39.494 15.2733 38.946 16.6243 38.6083 18.003 38.494 19.3817 38.6083 20.7327 38.946 22.003 39.494 23.9164 40.2548 25.9454 40.6843 28.003 40.764 30.0606 40.6843 32.0896 40.2548 34.003 39.494 35.2733 38.946 36.6243 38.6083 38.003 38.494 39.3783 38.5893 40.7292 38.9068 42.003 39.434 43.9113 40.2201 45.9413 40.67 48.003 40.764 50.0606 40.6843 52.0896 40.2548 54.003 39.494 55.2733 38.946 56.6243 38.6083 58.003 38.494 59.3817 38.6083 60.7327 38.946 62.003 39.494 63.9164 40.2548 65.9454 40.6843 68.003 40.764 70.0606 40.6843 72.0896 40.2548 74.003 39.494 75.2733 38.946 76.6243 38.6083 78.003 38.494 79.3783 38.5893 80.7292 38.9068 82.003 39.434 83.9113 40.2201 85.9413 40.67 88.003 40.764L88.003 34.764C86.6264 34.6674 85.2745 34.3482 84 33.819ZM58 32.549C55.9424 32.6289 53.9135 33.0583 52 33.819 50.7262 34.3465 49.3754 34.6643 48 34.76 46.6246 34.6643 45.2738 34.3465 44 33.819 42.0865 33.0584 40.0576 32.6289 38 32.549 35.9424 32.6289 33.9135 33.0583 32 33.819 30.8503 34.293 29.6375 34.5962 28.4 34.719L32.642 28.661C32.7638 28.4857 32.8572 28.2923 32.919 28.088L35.774 18.571 43.697 10.648 52.854 25.875 58.79 18.686 65.918 34.441C65.2633 34.2846 64.6219 34.0766 64 33.819 62.0865 33.0584 60.0576 32.6289 58 32.549Z" fill="#FBAF17"/><path d="M75.025 44.871C73.9936 45.0834 72.9825 45.3845 72.003 45.771 70.7292 46.2985 69.3784 46.6163 68.003 46.712 66.6276 46.6163 65.2768 46.2985 64.003 45.771 62.0895 45.0104 60.0606 44.5809 58.003 44.501 55.9454 44.5809 53.9165 45.0103 52.003 45.771 50.7292 46.2985 49.3784 46.6163 48.003 46.712 46.6276 46.6163 45.2768 46.2985 44.003 45.771 42.0895 45.0104 40.0606 44.5809 38.003 44.501 35.9454 44.5809 33.9165 45.0103 32.003 45.771 30.7292 46.2985 29.3784 46.6163 28.003 46.712 26.6276 46.6163 25.2768 46.2985 24.003 45.771 22.8536 45.3197 21.661 44.987 20.444 44.778L17.042 61.1C16.8985 61.7876 17.1263 62.5001 17.642 62.977L30.312 74.673 36.143 89.253C36.4465 90.0126 37.182 90.5109 38 90.511 38.1005 90.5107 38.2008 90.5026 38.3 90.487L51.3 88.487C51.8183 88.4087 52.2851 88.13 52.6 87.711L58.264 80.159 67.743 76.367C68.0834 76.231 68.3798 76.0041 68.6 75.711L80.6 59.711C81.038 59.1271 81.1231 58.3509 80.822 57.686Z" fill="#FBAF17"/></g></svg>