<svg viewBox="0 0 96 96" xmlns="http://www.w3.org/2000/svg" xmlns:xlink="http://www.w3.org/1999/xlink" id="Icons_GoodInventory" overflow="hidden"><path d="M48 60 71 60 71 43.882C66.1644 43.336 61.7567 40.8529 58.784 37L48 37ZM51 40 55 40 55 44 51 44Z" fill="#3F51EF"/><path d="M55 26C54.9974 22.467 56.0413 19.0124 58 16.072L58 11 35 11 35 34 56.9 34C55.6529 31.5175 55.0023 28.7782 55 26ZM42 18 38 18 38 14 42 14Z" fill="#3F51EF"/><path d="M45 37 22 37 22 60 45 60ZM29 44 25 44 25 40 29 40Z" fill="#3F51EF"/><path d="M61 86 83 86 83 63 61 63ZM64 66 68 66 68 70 64 70Z" fill="#3F51EF"/><path d="M35 86 58 86 58 63 35 63ZM38 66 42 66 42 70 38 70Z" fill="#3F51EF"/><path d="M9 86 32 86 32 63 9 63ZM12 66 16 66 16 70 12 70Z" fill="#3F51EF"/><path d="M73 11C64.7157 11 58 17.7157 58 26 58 34.2843 64.7157 41 73 41 81.2843 41 88 34.2843 88 26 88 17.7157 81.2843 11 73 11ZM70 33.121 62.939 26.061 65.061 23.939 70 28.879 79.939 18.939 82.061 21.061Z" fill="#3F51EF"/></svg>