<svg viewBox="0 0 96 96" xmlns="http://www.w3.org/2000/svg" xmlns:xlink="http://www.w3.org/1999/xlink" id="Icons_Cut_LTR" overflow="hidden"><path d="M5.55 24.894C2.32972 30.5331 4.27108 37.7145 9.894 40.963 10.7338 41.3862 11.6027 41.7491 12.494 42.049L22.549 46.283 26.4 47.913 22.549 49.543 12.492 53.777C11.6007 54.0769 10.7318 54.4398 9.892 54.863 4.25538 58.1008 2.31079 65.295 5.54864 70.9316 8.78648 76.5683 15.9807 78.5128 21.6173 75.275 27.2536 72.0373 29.1983 64.8436 25.961 59.207 25.3475 58.1577 24.5712 57.2126 23.661 56.407L36.078 54.9 39.117 53.3 39.722 53.556 69.628 66.082 81 64.666 53.372 50.1 49.254 47.909 53.372 45.718 81 31.159 69.628 29.743 39.722 42.273 39.117 42.529 36.078 40.929 23.662 39.418C24.5722 38.6125 25.3486 37.6673 25.962 36.618 29.2407 31.0051 27.3485 23.797 21.7356 20.5182 16.1227 17.2395 8.91455 19.1317 5.63581 24.7446 5.60684 24.7942 5.57824 24.844 5.55 24.894ZM20.989 62.053C22.6075 64.8716 21.6346 68.4685 18.816 70.087 15.9974 71.7054 12.4005 70.7325 10.782 67.9139 9.16358 65.0954 10.1365 61.4985 12.955 59.88 15.7782 58.2976 19.3484 59.2633 20.989 62.053ZM38.364 47.9C38.364 49.5281 37.0441 50.848 35.416 50.848 33.7879 50.848 32.468 49.5281 32.468 47.9 32.468 46.2719 33.7879 44.952 35.416 44.952 37.0441 44.952 38.364 46.2719 38.364 47.9ZM18.817 25.739C21.6308 27.3412 22.613 30.9212 21.0108 33.7351 21.0036 33.7477 20.9963 33.7604 20.989 33.773 19.3484 36.5628 15.7778 37.5281 12.955 35.945 10.1248 34.3469 9.12608 30.7571 10.7242 27.9269 12.3223 25.0967 15.9121 24.098 18.7423 25.6961 18.7673 25.7102 18.7922 25.7245 18.817 25.739Z" fill="#3F51EF"/><rect x="84" y="46" width="8" height="4" fill="#3F51EF"/><rect x="72" y="46" width="8" height="4" fill="#3F51EF"/><rect x="60" y="46" width="8" height="4" fill="#3F51EF"/></svg>