<svg viewBox="0 0 96 96" xmlns="http://www.w3.org/2000/svg" xmlns:xlink="http://www.w3.org/1999/xlink" id="Icons_BodyBuilder" overflow="hidden"><g id="_327_Body_Builder_B"><path d="M84.22 12 83.78 12C82.7732 12.0273 81.9776 12.863 82 13.87L82 20.13C81.9776 21.137 82.7732 21.9727 83.78 22L84.22 22C85.2268 21.9727 86.0224 21.137 86 20.13L86 13.87C86.0224 12.863 85.2268 12.0273 84.22 12Z" fill="#3F51EF"/><path d="M12.22 12 11.78 12C10.7732 12.0273 9.97761 12.863 10 13.87L10 20.13C9.97762 21.137 10.7732 21.9727 11.78 22L12.22 22C13.2268 21.9727 14.0224 21.137 14 20.13L14 13.87C14.0224 12.863 13.2268 12.0273 12.22 12Z" fill="#3F51EF"/><path d="M87 15 87 19C88.1046 19 89 18.1046 89 17 89 15.8954 88.1046 15 87 15Z" fill="#3F51EF"/><path d="M9 19 9 15C7.89543 15 7 15.8954 7 17 7 18.1046 7.89543 19 9 19Z" fill="#3F51EF"/><path d="M79.22 9 78.78 9C77.7103 9.11565 76.9238 10.0568 77 11.13L77 15 19 15 19 11.13C19.0762 10.0568 18.2897 9.11565 17.22 9L16.78 9C15.7103 9.11565 14.9238 10.0568 15 11.13L15 22.87C14.9238 23.9432 15.7103 24.8844 16.78 25L17.22 25C18.2897 24.8843 19.0762 23.9432 19 22.87L19 19 24 19 24 34C24.005 35.424 24.7667 36.738 26 37.45L40 45.7 40 55.47 25.83 64.64C24.6892 65.3767 24.0001 66.642 24 68L24 87 32 87 32 70.18 40 65 56 65 64 70.18 64 87 72 87 72 68C71.9999 66.642 71.3108 65.3767 70.17 64.64L56 55.47 56 45.7 70 37.45C71.2333 36.738 71.995 35.424 72 34L72 19 77 19 77 22.87C76.9238 23.9432 77.7103 24.8844 78.78 25L79.22 25C80.2897 24.8843 81.0762 23.9432 81 22.87L81 11.13C81.0762 10.0568 80.2897 9.11565 79.22 9ZM64 31.71 51.61 39 44.39 39 32 31.71 32 19 64 19Z" fill="#3F51EF"/><circle cx="48" cy="28" r="8" id="_16x16_circle_head" fill="#3F51EF"/></g></svg>